<svg viewBox="0 0 512 512" xmlns="http://www.w3.org/2000/svg" role="img" aria-label="くらしリレー">
  <defs>
    <linearGradient id="g" x1="0" y1="0" x2="1" y2="1"><stop offset="0" stop-color="#FFB4D2"/><stop offset="1" stop-color="#FF7EAF"/></linearGradient>
    <radialGradient id="h" cx="0.32" cy="0.24" r="0.9"><stop offset="0" stop-color="#ffffff" stop-opacity="0.35"/><stop offset="0.6" stop-color="#ffffff" stop-opacity="0"/></radialGradient>
    <radialGradient id="d" cx="0.36" cy="0.28" r="0.95"><stop offset="0" stop-color="#ffffff"/><stop offset="1" stop-color="#FFC9DE"/></radialGradient>
    <radialGradient id="glow"><stop offset="0" stop-color="#ffffff" stop-opacity="0.9"/><stop offset="0.55" stop-color="#ffffff" stop-opacity="0.28"/><stop offset="1" stop-color="#ffffff" stop-opacity="0"/></radialGradient>
  </defs>
  <rect width="512" height="512" rx="116" fill="url(#g)"/>
  <rect width="512" height="512" rx="116" fill="url(#h)"/>
  <g fill="none" stroke="#ffffff" stroke-opacity="0.5" stroke-width="11" stroke-linecap="round"><ellipse cx="256" cy="256" rx="188" ry="112" transform="rotate(-18 256 256)"/></g>
  <circle cx="434.8" cy="197.9" r="4.5" fill="#ffffff" opacity="0.42"/><circle cx="431.9" cy="250.5" r="3.2" fill="#ffffff" opacity="0.42"/><circle cx="393.4" cy="304.2" r="4.5" fill="#ffffff" opacity="0.42"/><circle cx="327.0" cy="348.1" r="3.2" fill="#ffffff" opacity="0.42"/><circle cx="246.3" cy="373.4" r="4.5" fill="#ffffff" opacity="0.42"/><circle cx="167.6" cy="374.9" r="3.2" fill="#ffffff" opacity="0.42"/><circle cx="106.7" cy="352.4" r="4.5" fill="#ffffff" opacity="0.42"/><circle cx="76.1" cy="310.3" r="3.2" fill="#ffffff" opacity="0.42"/><circle cx="81.9" cy="257.3" r="4.5" fill="#ffffff" opacity="0.42"/><circle cx="122.9" cy="204.0" r="3.2" fill="#ffffff" opacity="0.42"/><circle cx="190.9" cy="161.2" r="4.5" fill="#ffffff" opacity="0.42"/><circle cx="272.0" cy="137.6" r="3.2" fill="#ffffff" opacity="0.42"/><circle cx="349.9" cy="138.0" r="4.5" fill="#ffffff" opacity="0.42"/><circle cx="408.8" cy="162.2" r="3.2" fill="#ffffff" opacity="0.42"/><path d="M134.6 173.2 Q136.2 183.7 146.6 185.2 Q136.2 186.8 134.6 197.2 Q133.1 186.8 122.6 185.2 Q133.1 183.7 134.6 173.2 Z" fill="#ffffff" opacity="0.8"/><path d="M302.8 116.6 Q304.3 126.2 313.8 127.6 Q304.3 129.1 302.8 138.6 Q301.4 129.1 291.8 127.6 Q301.4 126.2 302.8 116.6 Z" fill="#ffffff" opacity="0.8"/><path d="M63.4 276.3 Q64.7 285.0 73.4 286.3 Q64.7 287.6 63.4 296.3 Q62.1 287.6 53.4 286.3 Q62.1 285.0 63.4 276.3 Z" fill="#ffffff" opacity="0.8"/><path d="M433.8 160.3 Q435.3 170.7 445.8 172.3 Q435.3 173.8 433.8 184.3 Q432.2 173.8 421.8 172.3 Q432.2 170.7 433.8 160.3 Z" fill="#ffffff" opacity="0.8"/><path d="M110.2 354.8 Q111.6 364.4 121.2 365.8 Q111.6 367.2 110.2 376.8 Q108.8 367.2 99.2 365.8 Q108.8 364.4 110.2 354.8 Z" fill="#ffffff" opacity="0.8"/><path d="M75.8 236.4 Q77.4 246.8 87.8 248.4 Q77.4 250.0 75.8 260.4 Q74.3 250.0 63.8 248.4 Q74.3 246.8 75.8 236.4 Z" fill="#ffffff" opacity="0.8"/><path d="M401.8 136.2 Q403.1 144.9 411.8 146.2 Q403.1 147.5 401.8 156.2 Q400.5 147.5 391.8 146.2 Q400.5 144.9 401.8 136.2 Z" fill="#ffffff" opacity="0.8"/><path d="M95.1 274.8 C86.7 268.7 90.7 262.0 95.1 266.8 C99.5 262.0 103.5 268.7 95.1 274.8 Z" fill="#ffffff" opacity="0.4"/><path d="M393.5 177.8 C385.1 171.8 389.1 165.0 393.5 169.8 C397.9 165.0 401.9 171.8 393.5 177.8 Z" fill="#ffffff" opacity="0.4"/><g>
    <circle cx="210.3" cy="139.0" r="40.3" fill="url(#glow)"/>
    <path d="M210.3 113.0 Q213.7 135.7 236.3 139.0 Q213.7 142.4 210.3 165.0 Q206.9 142.4 184.3 139.0 Q206.9 135.7 210.3 113.0 Z" fill="#ffffff" opacity="0.98"/>
    <g transform="rotate(45 210.3 139.0)"><path d="M210.3 125.5 Q212.0 137.3 223.8 139.0 Q212.0 140.8 210.3 152.6 Q208.5 140.8 196.8 139.0 Q208.5 137.3 210.3 125.5 Z" fill="#ffffff" opacity="0.92"/></g>
    <circle cx="210.3" cy="139.0" r="3.1" fill="#ffffff"/>
  </g><g>
    <circle cx="69.7" cy="240.9" r="34.1" fill="url(#glow)"/>
    <path d="M69.7 218.9 Q72.6 238.0 91.7 240.9 Q72.6 243.7 69.7 262.9 Q66.9 243.7 47.7 240.9 Q66.9 238.0 69.7 218.9 Z" fill="#ffffff" opacity="0.98"/>
    <g transform="rotate(45 69.7 240.9)"><path d="M69.7 229.4 Q71.2 239.4 81.2 240.9 Q71.2 242.4 69.7 252.3 Q68.2 242.4 58.3 240.9 Q68.2 239.4 69.7 229.4 Z" fill="#ffffff" opacity="0.92"/></g>
    <circle cx="69.7" cy="240.9" r="2.6" fill="#ffffff"/>
  </g><g>
    <circle cx="389.9" cy="131.3" r="37.2" fill="url(#glow)"/>
    <path d="M389.9 107.3 Q393.1 128.2 413.9 131.3 Q393.1 134.4 389.9 155.3 Q386.8 134.4 365.9 131.3 Q386.8 128.2 389.9 107.3 Z" fill="#ffffff" opacity="0.98"/>
    <g transform="rotate(45 389.9 131.3)"><path d="M389.9 118.8 Q391.6 129.7 402.4 131.3 Q391.6 132.9 389.9 143.8 Q388.3 132.9 377.5 131.3 Q388.3 129.7 389.9 118.8 Z" fill="#ffffff" opacity="0.92"/></g>
    <circle cx="389.9" cy="131.3" r="2.9" fill="#ffffff"/>
  </g>
  <g transform="translate(212 258) rotate(-16) scale(1.15)"><path d="M0 -132 C40 -82 70 -46 70 0 C70 40 40 70 0 70 C-40 70 -70 40 -70 0 C-70 -46 -40 -82 0 -132 Z" fill="url(#d)"/><ellipse cx="-20" cy="-40" rx="13" ry="24" fill="#ffffff" opacity="0.85"/></g>
  <g transform="translate(300 262) rotate(18) scale(0.92)"><path d="M0 -132 C40 -82 70 -46 70 0 C70 40 40 70 0 70 C-40 70 -70 40 -70 0 C-70 -46 -40 -82 0 -132 Z" fill="url(#d)" stroke="#FF7EAF" stroke-opacity="0.16" stroke-width="6"/><ellipse cx="-20" cy="-40" rx="13" ry="24" fill="#ffffff" opacity="0.9"/></g>
</svg>
